<svg xmlns="http://www.w3.org/2000/svg" width="86.718" height="86.718" viewBox="0 0 86.718 86.718">
  <path id="iconfinder_Circled_Facebook_svg_5279111" d="M43.193,86.718h0Zm.306,0h0Zm-.438,0h0Zm.578,0h0Zm-.706,0h0Zm.846,0h0Zm.14,0h0Zm-1.148,0h0Zm1.288,0h0Zm-1.423,0h0Zm1.563,0h0Zm-1.691,0h0Zm-.159,0h0Zm1.989,0h0Zm-2.128,0h0Zm2.268,0h0Zm.139,0h-.034l.054,0h-.019Zm-2.535,0,.054,0h-.054Zm-.122,0h0Zm2.8,0h0Zm.139,0h-.019l.058,0Zm-3.112,0,.058,0h-.058Zm-.127,0,.061,0h-.061Zm3.377,0H45l.061,0Zm-3.5-.006.06,0-.047,0h-.013Zm3.641,0-.047,0,.06,0h-.013Zm-3.815-.008.064,0h-.016Zm3.954,0H45.3l.064,0-.049,0Zm-4.079-.008.067,0h-.032Zm4.218,0h-.032l.067,0Zm-4.341-.008.067,0-.047,0Zm4.48,0-.047,0,.067,0Zm.139-.007-.061,0,.054,0,.064,0-.057,0Zm-4.73,0,.054,0-.061,0-.057,0,.064,0Zm4.868-.008-.027,0,.069,0Zm-5.055,0,.069,0-.027,0Zm-.122-.007.069,0-.043,0-.026,0Zm5.315,0-.043,0,.069,0-.026,0Zm-5.432-.009.062,0-.058,0-.058,0,.054,0Zm5.57,0-.058,0,.062,0,.054,0-.058,0Zm.138-.009h-.021l.066,0-.045,0Zm-5.887,0,.066,0h-.021Zm-.122-.008.064,0-.035,0Zm6.146,0-.035,0,.064,0ZM40.15,86.6l.059,0-.046,0H40.15Zm6.406,0-.046,0,.059,0h-.013Zm-6.57-.013.052,0h-.013Zm6.707,0h-.013l.052,0Zm.137-.011-.025,0,.053,0Zm-6.971,0,.053,0-.025,0-.028,0Zm-.123-.01.045,0-.032,0Zm7.231,0-.032,0,.045,0ZM39.6,86.557h0Zm7.5,0h0Zm.137-.012H47.23l.031,0-.018,0Zm-7.785,0,.031,0h-.012l-.018,0Zm-.127-.012.023,0H39.33Zm8.049,0h-.014l.023,0Zm-10.8-.343a43.359,43.359,0,1,1,13.55,0v-30.3h10.1l1.922-12.533H50.134V35.226c0-3.429,1.68-6.771,7.066-6.771h5.467V17.784a66.676,66.676,0,0,0-9.706-.847c-9.9,0-16.377,6-16.377,16.869v9.553H25.575V55.893H36.584Z" fill="#386c66" fill-rule="evenodd"/>
</svg>
