<svg id="Layer_1" data-name="Layer 1" xmlns="http://www.w3.org/2000/svg" width="532.847" height="138.884" viewBox="0 0 532.847 138.884">
  <path id="Path_6" data-name="Path 6" d="M138.884,138.884H0V0H138.884ZM2.117,136.766H136.766V2.117H2.117Z" fill="#bc6c25"/>
  <path id="Path_7" data-name="Path 7" d="M93.327,32.17,78.346,76.047H76.229L61.937,35.118,47.713,76.047H45.5L30.52,32.17h2.255L46.654,72.977,60.947,32.17h2.07L77.245,73.041,91.22,32.17Z" transform="translate(-14.364 -15.141)" fill="#bc6c25"/>
  <path id="Path_8" data-name="Path 8" d="M196.8,150.864q4.616,3.848,4.611,10.687T196.8,172.3q-4.605,3.859-12.815,3.859h-13.1v14.732H168.77V147H184Q192.183,147,196.8,150.864ZM195.4,170.921q3.944-3.287,3.949-9.369t-3.949-9.311q-3.944-3.287-11.28-3.287H170.882v25.26h13.234q7.331,0,11.28-3.293Z" transform="translate(-79.433 -69.187)" fill="#bc6c25"/>
  <rect id="Rectangle_56" data-name="Rectangle 56" width="148.243" height="2.117" transform="translate(16.41 121.11) rotate(-45)" fill="#bc6c25"/>
  <path id="Path_9" data-name="Path 9" d="M351.55,57.38,340.963,89.008H336.2l-8.581-25.255L318.99,89.008h-4.833L303.57,57.38h4.653l8.544,25.737,8.9-25.71h4.155l8.718,25.843,8.718-25.869Z" transform="translate(-142.877 -27.006)" fill="#bc6c25"/>
  <path id="Path_10" data-name="Path 10" d="M435.707,81.1H418.9l-3.478,7.908H410.77L425.089,57.38h4.473l14.366,31.628h-4.764Zm-1.588-3.615L427.3,61.991l-6.818,15.494Z" transform="translate(-193.332 -27.006)" fill="#bc6c25"/>
  <path id="Path_11" data-name="Path 11" d="M526.548,57.38V89.008h-3.705L503.871,65.426V89.008H499.35V57.38h3.705l18.977,23.582V57.38Z" transform="translate(-235.023 -27.006)" fill="#bc6c25"/>
  <path id="Path_12" data-name="Path 12" d="M585.72,57.377h13.329a19.289,19.289,0,0,1,8.9,1.99,14.6,14.6,0,0,1,6.029,5.579,16.889,16.889,0,0,1,0,16.489,14.6,14.6,0,0,1-6.029,5.579,19.289,19.289,0,0,1-8.9,1.99H585.72Zm13.059,27.7a14.6,14.6,0,0,0,6.749-1.493,10.767,10.767,0,0,0,4.5-4.177,12.943,12.943,0,0,0,0-12.424,10.8,10.8,0,0,0-4.5-4.177,14.6,14.6,0,0,0-6.749-1.493h-8.538V85.072Z" transform="translate(-275.673 -27.003)" fill="#bc6c25"/>
  <path id="Path_13" data-name="Path 13" d="M696.232,85.075v3.933H673.28V57.38H695.6v3.933H677.8v9.713h15.854v3.838H677.8V85.075Z" transform="translate(-316.884 -27.006)" fill="#bc6c25"/>
  <path id="Path_14" data-name="Path 14" d="M768.672,89.008l-6.823-9.713c-.842.058-1.5.09-1.985.09h-7.813v9.623H747.53V57.38h12.334q6.146,0,9.666,2.938a9.982,9.982,0,0,1,3.525,8.088,10.587,10.587,0,0,1-1.805,6.241,10.227,10.227,0,0,1-5.151,3.748l7.5,10.619Zm-2.366-15.319a6.474,6.474,0,0,0,2.26-5.293,6.312,6.312,0,0,0-2.26-5.251q-2.266-1.837-6.553-1.832h-7.676V75.542h7.676Q764.024,75.542,766.306,73.689Z" transform="translate(-351.83 -27.006)" fill="#bc6c25"/>
  <path id="Path_15" data-name="Path 15" d="M826.64,57.38h4.521V89.008H826.64Z" transform="translate(-389.064 -27.006)" fill="#bc6c25"/>
  <path id="Path_16" data-name="Path 16" d="M897.368,57.38V89.008h-3.705L874.685,65.426V89.008H870.17V57.38h3.705l18.966,23.582V57.38Z" transform="translate(-409.552 -27.006)" fill="#bc6c25"/>
  <path id="Path_17" data-name="Path 17" d="M976.157,72.694h4.335V85.028a16.817,16.817,0,0,1-5.468,2.985,20.544,20.544,0,0,1-6.506,1.059,17.659,17.659,0,0,1-8.628-2.117,15.637,15.637,0,0,1-6.029-5.78,16.823,16.823,0,0,1,0-16.605,15.351,15.351,0,0,1,6.056-5.78,18.035,18.035,0,0,1,8.7-2.08,18.4,18.4,0,0,1,6.881,1.244,13.991,13.991,0,0,1,5.262,3.637l-2.8,2.8a12.7,12.7,0,0,0-9.173-3.663,13.366,13.366,0,0,0-6.484,1.556,11.434,11.434,0,0,0-4.494,4.341,12.768,12.768,0,0,0,0,12.466A11.646,11.646,0,0,0,962.3,83.45a13.117,13.117,0,0,0,6.437,1.588,13.414,13.414,0,0,0,7.411-2.033Z" transform="translate(-447.91 -26.689)" fill="#bc6c25"/>
  <path id="Path_18" data-name="Path 18" d="M431.939,161.238a6.643,6.643,0,0,1,0,9.724,8.813,8.813,0,0,1-5.823,1.768h-4.7v5.759H418.7V159.47h7.411A8.822,8.822,0,0,1,431.939,161.238Zm-1.964,8.041a4.362,4.362,0,0,0,0-6.352,6.077,6.077,0,0,0-3.938-1.1h-4.621v8.533h4.621A6.127,6.127,0,0,0,429.975,169.279Z" transform="translate(-197.064 -75.056)" fill="#bc6c25"/>
  <path id="Path_19" data-name="Path 19" d="M477.368,164.561a6.239,6.239,0,0,1,1.62,4.658v8.258h-2.61V169.49a4.43,4.43,0,0,0-1.006-3.15,3.774,3.774,0,0,0-2.88-1.059,4.468,4.468,0,0,0-3.34,1.233,4.838,4.838,0,0,0-1.228,3.547v7.411h-2.6V157.32h2.6v7.8a5.4,5.4,0,0,1,2.117-1.588,7.342,7.342,0,0,1,2.948-.572A5.929,5.929,0,0,1,477.368,164.561Z" transform="translate(-219.006 -74.044)" fill="#bc6c25"/>
  <path id="Path_20" data-name="Path 20" d="M511.841,181.686a6.839,6.839,0,0,1-2.647-2.62,7.94,7.94,0,0,1,0-7.58,6.812,6.812,0,0,1,2.647-2.61,7.94,7.94,0,0,1,3.859-.937,7.829,7.829,0,0,1,3.848.937,6.882,6.882,0,0,1,2.647,2.61,7.94,7.94,0,0,1,0,7.58,6.882,6.882,0,0,1-2.647,2.62,7.728,7.728,0,0,1-3.848.953,7.807,7.807,0,0,1-3.859-.953Zm6.352-1.969a4.5,4.5,0,0,0,1.726-1.789,5.928,5.928,0,0,0,0-5.293,4.414,4.414,0,0,0-1.726-1.784,5.257,5.257,0,0,0-4.971,0,4.521,4.521,0,0,0-1.741,1.784,5.823,5.823,0,0,0,0,5.293,4.605,4.605,0,0,0,1.741,1.789A5.14,5.14,0,0,0,518.193,179.717Z" transform="translate(-239.202 -79.041)" fill="#bc6c25"/>
  <path id="Path_21" data-name="Path 21" d="M559.813,178.933a3.826,3.826,0,0,1-1.413.746,5.822,5.822,0,0,1-1.742.259,4.589,4.589,0,0,1-3.367-1.17,4.446,4.446,0,0,1-1.2-3.34V167.52H549.65v-2.144H552.1V162.2h2.61v3.176h4.129v2.144h-4.129v7.808a2.509,2.509,0,0,0,.582,1.794,2.176,2.176,0,0,0,1.673.625,3.134,3.134,0,0,0,2.038-.678Z" transform="translate(-258.697 -76.341)" fill="#bc6c25"/>
  <path id="Path_22" data-name="Path 22" d="M585.272,181.687a6.818,6.818,0,0,1-2.679-2.62,7.94,7.94,0,0,1,0-7.58,6.791,6.791,0,0,1,2.678-2.61,8.385,8.385,0,0,1,7.7,0,6.882,6.882,0,0,1,2.647,2.61,7.94,7.94,0,0,1,0,7.58,6.881,6.881,0,0,1-2.647,2.62,8.258,8.258,0,0,1-7.7,0Zm6.352-1.969a4.5,4.5,0,0,0,1.726-1.789,5.929,5.929,0,0,0,0-5.293,4.415,4.415,0,0,0-1.726-1.784,5.256,5.256,0,0,0-4.971,0,4.52,4.52,0,0,0-1.742,1.784,5.823,5.823,0,0,0,0,5.293,4.6,4.6,0,0,0,1.741,1.789A5.14,5.14,0,0,0,591.624,179.718Z" transform="translate(-273.749 -79.042)" fill="#bc6c25"/>
  <path id="Path_23" data-name="Path 23" d="M639.548,168.129v12.445q0,3.774-1.879,5.585a7.755,7.755,0,0,1-5.6,1.805,13.414,13.414,0,0,1-3.885-.529,7.765,7.765,0,0,1-2.991-1.588l1.249-2.006a7.536,7.536,0,0,0,2.488,1.371,9.528,9.528,0,0,0,3.06.529,4.28,4.28,0,0,0,4.918-4.838v-1.143a5.744,5.744,0,0,1-2.271,1.673,7.559,7.559,0,0,1-2.922.556,7.861,7.861,0,0,1-3.705-.879,6.58,6.58,0,0,1-2.647-2.477,7.411,7.411,0,0,1,0-7.252,6.5,6.5,0,0,1,2.647-2.461,7.983,7.983,0,0,1,3.705-.868,7.676,7.676,0,0,1,3.033.6,5.622,5.622,0,0,1,2.292,1.768v-2.287Zm-4.96,10.92a4.388,4.388,0,0,0,1.763-1.667,4.648,4.648,0,0,0,.641-2.435,4.4,4.4,0,0,0-1.387-3.383,5.018,5.018,0,0,0-3.557-1.292,5.076,5.076,0,0,0-3.589,1.292,4.42,4.42,0,0,0-1.382,3.383,4.694,4.694,0,0,0,.635,2.435,4.4,4.4,0,0,0,1.768,1.667,5.754,5.754,0,0,0,5.108,0Z" transform="translate(-293.888 -79.094)" fill="#bc6c25"/>
  <path id="Path_24" data-name="Path 24" d="M677.19,168.588a7.326,7.326,0,0,1,3.234-.651v2.53a4.345,4.345,0,0,0-.6-.032,4.4,4.4,0,0,0-3.33,1.265,5,5,0,0,0-1.207,3.6v7.173h-2.61v-14.4h2.5v2.419a4.457,4.457,0,0,1,2.006-1.906Z" transform="translate(-316.602 -79.039)" fill="#bc6c25"/>
  <path id="Path_25" data-name="Path 25" d="M712.415,169.4A5.681,5.681,0,0,1,714,173.774v8.692h-2.472v-1.9a4.1,4.1,0,0,1-1.863,1.535,7.056,7.056,0,0,1-2.864.529,5.976,5.976,0,0,1-3.875-1.17,4.012,4.012,0,0,1-.064-6.125,6.8,6.8,0,0,1,4.4-1.154h4.129v-.529a3.319,3.319,0,0,0-.974-2.578,4.14,4.14,0,0,0-2.885-.9,7.644,7.644,0,0,0-2.5.423,6.427,6.427,0,0,0-2.064,1.128l-1.059-1.959a7.876,7.876,0,0,1,2.647-1.371,11.116,11.116,0,0,1,3.287-.476A6.578,6.578,0,0,1,712.415,169.4Zm-2.594,10.56a3.817,3.817,0,0,0,1.588-1.89v-2.011h-4.018q-3.319,0-3.319,2.229a2,2,0,0,0,.847,1.71,3.832,3.832,0,0,0,2.334.625A4.9,4.9,0,0,0,709.821,179.957Z" transform="translate(-330.155 -79.033)" fill="#bc6c25"/>
  <path id="Path_26" data-name="Path 26" d="M755.926,168.865a6.638,6.638,0,0,1,2.594,2.578,8.326,8.326,0,0,1,0,7.675,6.622,6.622,0,0,1-2.594,2.6,7.591,7.591,0,0,1-3.748.921,6.7,6.7,0,0,1-2.843-.6,5.945,5.945,0,0,1-2.186-1.736v7.443h-2.61v-19.67h2.5v2.281a5.607,5.607,0,0,1,2.2-1.805,6.967,6.967,0,0,1,2.938-.614A7.538,7.538,0,0,1,755.926,168.865Zm-1.482,10.852a4.605,4.605,0,0,0,1.742-1.789,5.823,5.823,0,0,0,0-5.293,4.521,4.521,0,0,0-1.742-1.784,4.97,4.97,0,0,0-2.483-.625,4.833,4.833,0,0,0-2.461.641,4.648,4.648,0,0,0-1.741,1.779,5.336,5.336,0,0,0-.635,2.647,5.485,5.485,0,0,0,.625,2.647,4.484,4.484,0,0,0,1.736,1.789,4.871,4.871,0,0,0,2.477.641A4.817,4.817,0,0,0,754.444,179.717Z" transform="translate(-350.423 -79.041)" fill="#bc6c25"/>
  <path id="Path_27" data-name="Path 27" d="M801.863,164.561a6.314,6.314,0,0,1,1.588,4.658v8.258h-2.583V169.49a4.429,4.429,0,0,0-1-3.15,3.779,3.779,0,0,0-2.885-1.059,4.484,4.484,0,0,0-3.34,1.233,4.837,4.837,0,0,0-1.223,3.547v7.411h-2.61V157.32h2.61v7.8a5.4,5.4,0,0,1,2.117-1.588,7.342,7.342,0,0,1,2.948-.572A5.939,5.939,0,0,1,801.863,164.561Z" transform="translate(-371.73 -74.044)" fill="#bc6c25"/>
  <path id="Path_28" data-name="Path 28" d="M846.961,176.13H835.279a4.531,4.531,0,0,0,1.673,3.06,5.463,5.463,0,0,0,3.547,1.154,5.346,5.346,0,0,0,4.155-1.742l1.424,1.689a6.314,6.314,0,0,1-2.43,1.736,9.179,9.179,0,0,1-7.3-.339,6.67,6.67,0,0,1-2.71-2.615,7.5,7.5,0,0,1-.969-3.806,7.633,7.633,0,0,1,.937-3.774,6.7,6.7,0,0,1,2.583-2.647,7.363,7.363,0,0,1,3.705-.937,7.188,7.188,0,0,1,3.679.937,6.521,6.521,0,0,1,2.525,2.647,7.94,7.94,0,0,1,.916,3.854A7.356,7.356,0,0,1,846.961,176.13Zm-10.2-4.859a4.574,4.574,0,0,0-1.482,2.986h9.237a4.631,4.631,0,0,0-1.477-2.975,4.865,4.865,0,0,0-6.278,0Z" transform="translate(-391.901 -79.027)" fill="#bc6c25"/>
  <path id="Path_29" data-name="Path 29" d="M881.38,168.588a7.3,7.3,0,0,1,3.234-.651v2.53a5.092,5.092,0,0,0-3.928,1.233,5.007,5.007,0,0,0-1.212,3.6v7.173h-2.6v-14.4h2.5v2.419A4.447,4.447,0,0,1,881.38,168.588Z" transform="translate(-412.705 -79.039)" fill="#bc6c25"/>
</svg>
