<svg xmlns="http://www.w3.org/2000/svg" width="262.37" height="355" viewBox="0 0 262.37 355"><g id="Layer_2" data-name="Layer 2"><g id="Layer_1-2" data-name="Layer 1"><path d="M262.37,262.37H0V0H262.37ZM4,258.37H258.37V4H4Z"/><path d="M149.17,32.17l-28.3,82.89h-4l-27-77.32L63,115.06H58.82L30.52,32.17h4.26L61,109.26,88,32.17h3.91l26.88,77.21,26.4-77.21Z"/><path d="M221.73,154.3q8.72,7.27,8.71,20.19t-8.71,20.3q-8.7,7.29-24.21,7.29H172.77v27.83h-4V147h28.77Q213,147,221.73,154.3Zm-2.66,37.89q7.45-6.21,7.46-17.7t-7.46-17.59q-7.45-6.21-21.31-6.21h-25v47.72h25Q211.61,198.41,219.07,192.19Z"/><rect x="-8.6" y="129.19" width="280.05" height="4" transform="translate(-54.27 131.36) rotate(-45)"/><path d="M35.31,300.5l-7.34,22H24.68l-6-17.53-6,17.53H9.34L2,300.5H5.23l5.93,17.85,6.18-17.85h2.88l6.06,17.94,6-17.94Z"/><path d="M58.71,317H47l-2.42,5.49H41.39l9.94-22h3.11l10,22H61.12Zm-1.1-2.51L52.87,303.7l-4.73,10.76Z"/><path d="M92.83,300.5v22H90.26L77.08,306.09v16.37H74v-22h2.57l13.17,16.38V300.5Z"/><path d="M105.69,300.5h9.25a13.39,13.39,0,0,1,6.18,1.38,10.14,10.14,0,0,1,4.19,3.88,11.72,11.72,0,0,1,0,11.44,10.14,10.14,0,0,1-4.19,3.88,13.39,13.39,0,0,1-6.18,1.38h-9.25Zm9.06,19.23a10.16,10.16,0,0,0,4.69-1,7.42,7.42,0,0,0,3.12-2.9,9,9,0,0,0,0-8.62,7.42,7.42,0,0,0-3.12-2.9,10.16,10.16,0,0,0-4.69-1h-5.93v16.5Z"/><path d="M153.8,319.73v2.73H137.87v-22h15.49v2.73H141V310h11v2.66H141v7.09Z"/><path d="M179.83,322.46l-4.74-6.75c-.58.05-1,.07-1.37.07h-5.43v6.68h-3.14v-22h8.57a10.17,10.17,0,0,1,6.71,2,6.92,6.92,0,0,1,2.44,5.62,7.36,7.36,0,0,1-1.25,4.32,7.1,7.1,0,0,1-3.58,2.61l5.21,7.37Zm-1.66-10.63a5.06,5.06,0,0,0,0-7.33,7.13,7.13,0,0,0-4.55-1.27h-5.33v9.88h5.33A7.07,7.07,0,0,0,178.17,311.83Z"/><path d="M194.23,300.5h3.13v22h-3.13Z"/><path d="M229.1,300.5v22h-2.57l-13.17-16.37v16.37h-3.14v-22h2.57L226,316.88V300.5Z"/><path d="M257.17,311.36h3v8.56a11.58,11.58,0,0,1-3.79,2.07,14.21,14.21,0,0,1-4.52.72,12.32,12.32,0,0,1-6-1.46,10.85,10.85,0,0,1-4.19-4,11.69,11.69,0,0,1,0-11.53,10.69,10.69,0,0,1,4.21-4,12.46,12.46,0,0,1,6-1.45,12.64,12.64,0,0,1,4.78.87,9.65,9.65,0,0,1,3.65,2.52l-1.94,1.94a8.86,8.86,0,0,0-6.37-2.54,9.19,9.19,0,0,0-4.5,1.09,7.86,7.86,0,0,0-3.12,3,8.84,8.84,0,0,0,0,8.65,8,8,0,0,0,3.12,3,9.14,9.14,0,0,0,4.47,1.1,9.3,9.3,0,0,0,5.14-1.41Z"/><path d="M53.5,339.25a4.61,4.61,0,0,1,0,6.75,6.11,6.11,0,0,1-4,1.23H46.2v4H44.31V338h5.15A6.11,6.11,0,0,1,53.5,339.25Zm-1.36,5.57a3,3,0,0,0,0-4.39,4.25,4.25,0,0,0-2.73-.77H46.2v5.92h3.21A4.25,4.25,0,0,0,52.14,344.82Z"/><path d="M69.81,342.24a4.35,4.35,0,0,1,1.12,3.23v5.75H69.12v-5.54a3.1,3.1,0,0,0-.7-2.19,2.63,2.63,0,0,0-2-.73,3.13,3.13,0,0,0-2.32.85,3.37,3.37,0,0,0-.85,2.47v5.14H61.44v-14h1.81v5.41a3.69,3.69,0,0,1,1.48-1.11,5.17,5.17,0,0,1,2-.4A4.13,4.13,0,0,1,69.81,342.24Z"/><path d="M79.72,350.68a4.85,4.85,0,0,1-1.86-1.82,5.52,5.52,0,0,1,0-5.27,4.83,4.83,0,0,1,1.86-1.81,5.83,5.83,0,0,1,5.35,0,4.78,4.78,0,0,1,1.84,1.81,5.52,5.52,0,0,1,0,5.27,4.8,4.8,0,0,1-1.84,1.82,5.75,5.75,0,0,1-5.35,0Zm4.4-1.37a3.18,3.18,0,0,0,1.2-1.24,3.82,3.82,0,0,0,.43-1.84,3.76,3.76,0,0,0-.43-1.84,3.05,3.05,0,0,0-1.2-1.24,3.41,3.41,0,0,0-1.72-.43,3.44,3.44,0,0,0-1.73.43,3.14,3.14,0,0,0-1.21,1.24,3.76,3.76,0,0,0-.44,1.84,3.82,3.82,0,0,0,.44,1.84,3.28,3.28,0,0,0,1.21,1.24,3.35,3.35,0,0,0,1.73.44A3.31,3.31,0,0,0,84.12,349.31Z"/><path d="M99.49,350.64a2.7,2.7,0,0,1-1,.52,4.12,4.12,0,0,1-1.21.18,3.2,3.2,0,0,1-2.34-.81,3.12,3.12,0,0,1-.83-2.32v-5.49h-1.7v-1.49h1.7V339h1.81v2.19h2.87v1.49H95.94v5.41a1.78,1.78,0,0,0,.41,1.25,1.49,1.49,0,0,0,1.16.43,2.2,2.2,0,0,0,1.41-.47Z"/><path d="M106.71,350.68a4.85,4.85,0,0,1-1.86-1.82,5.52,5.52,0,0,1,0-5.27,4.83,4.83,0,0,1,1.86-1.81,5.83,5.83,0,0,1,5.35,0,4.87,4.87,0,0,1,1.85,1.81,5.52,5.52,0,0,1,0,5.27,4.9,4.9,0,0,1-1.85,1.82,5.75,5.75,0,0,1-5.35,0Zm4.41-1.37a3.23,3.23,0,0,0,1.19-1.24,3.82,3.82,0,0,0,.44-1.84,3.76,3.76,0,0,0-.44-1.84,3.09,3.09,0,0,0-1.19-1.24,3.7,3.7,0,0,0-3.46,0,3.05,3.05,0,0,0-1.2,1.24,3.66,3.66,0,0,0-.45,1.84,3.72,3.72,0,0,0,.45,1.84,3.18,3.18,0,0,0,1.2,1.24,3.62,3.62,0,0,0,3.46,0Z"/><path d="M130.42,341.23v8.64a5.14,5.14,0,0,1-1.3,3.87,5.39,5.39,0,0,1-3.89,1.26,9.16,9.16,0,0,1-2.69-.39,5.34,5.34,0,0,1-2.08-1.1l.87-1.4a5,5,0,0,0,1.73.95,6.33,6.33,0,0,0,2.12.35,3.52,3.52,0,0,0,2.59-.83,3.39,3.39,0,0,0,.84-2.52v-.8a3.91,3.91,0,0,1-1.57,1.16,5.24,5.24,0,0,1-2,.39,5.48,5.48,0,0,1-2.6-.61,4.57,4.57,0,0,1-1.82-1.72,5.14,5.14,0,0,1,0-5,4.52,4.52,0,0,1,1.82-1.7,5.48,5.48,0,0,1,2.6-.61,5.25,5.25,0,0,1,2.1.42,3.88,3.88,0,0,1,1.6,1.22v-1.54ZM127,348.81a3.12,3.12,0,0,0,1.23-1.16,3.3,3.3,0,0,0,.44-1.69,3.07,3.07,0,0,0-1-2.35,3.9,3.9,0,0,0-5,0,3,3,0,0,0-1,2.35,3.21,3.21,0,0,0,.45,1.69,3,3,0,0,0,1.22,1.16,3.73,3.73,0,0,0,1.79.42A3.66,3.66,0,0,0,127,348.81Z"/><path d="M140.78,341.59a4.92,4.92,0,0,1,2.24-.46v1.76a2.37,2.37,0,0,0-.41,0,3,3,0,0,0-2.31.88,3.44,3.44,0,0,0-.84,2.49v5h-1.81v-10h1.73v1.68A3.09,3.09,0,0,1,140.78,341.59Z"/><path d="M155.82,342.15a3.92,3.92,0,0,1,1.1,3v6h-1.71V349.9a2.91,2.91,0,0,1-1.29,1.07,4.87,4.87,0,0,1-2,.37,4.17,4.17,0,0,1-2.69-.81,2.58,2.58,0,0,1-1-2.13,2.65,2.65,0,0,1,1-2.13,4.77,4.77,0,0,1,3.06-.8h2.86v-.36a2.29,2.29,0,0,0-.68-1.79,2.89,2.89,0,0,0-2-.62,5.41,5.41,0,0,0-1.73.29,4.64,4.64,0,0,0-1.43.78l-.76-1.35a5.42,5.42,0,0,1,1.85-1,7.76,7.76,0,0,1,2.28-.33A4.5,4.5,0,0,1,155.82,342.15Zm-1.8,7.33a2.65,2.65,0,0,0,1.09-1.31v-1.4h-2.79c-1.53,0-2.3.52-2.3,1.55a1.41,1.41,0,0,0,.59,1.19,2.64,2.64,0,0,0,1.62.43A3.34,3.34,0,0,0,154,349.48Z"/><path d="M172,341.77a4.65,4.65,0,0,1,1.8,1.8,5.32,5.32,0,0,1,.65,2.66,5.44,5.44,0,0,1-.65,2.67,4.65,4.65,0,0,1-1.8,1.8,5.36,5.36,0,0,1-2.6.64,4.62,4.62,0,0,1-2-.42,4.09,4.09,0,0,1-1.51-1.2v5.16h-1.82V341.23h1.74v1.58a3.8,3.8,0,0,1,1.53-1.25,4.69,4.69,0,0,1,2-.43A5.36,5.36,0,0,1,172,341.77Zm-1,7.54a3.28,3.28,0,0,0,1.21-1.24,3.82,3.82,0,0,0,.44-1.84,3.76,3.76,0,0,0-.44-1.84,3.14,3.14,0,0,0-1.21-1.24,3.6,3.6,0,0,0-3.43,0,3.28,3.28,0,0,0-1.21,1.24,3.59,3.59,0,0,0-.44,1.83,3.82,3.82,0,0,0,.43,1.84,3.14,3.14,0,0,0,1.21,1.24,3.58,3.58,0,0,0,3.44,0Z"/><path d="M189.06,342.24a4.31,4.31,0,0,1,1.12,3.23v5.75h-1.81v-5.54a3,3,0,0,0-.7-2.19,2.61,2.61,0,0,0-2-.73,3.13,3.13,0,0,0-2.32.85,3.41,3.41,0,0,0-.85,2.47v5.14h-1.81v-14h1.81v5.41a3.69,3.69,0,0,1,1.48-1.11,5.2,5.2,0,0,1,2.05-.4A4.13,4.13,0,0,1,189.06,342.24Z"/><path d="M206.36,346.83h-8.11a3.15,3.15,0,0,0,1.16,2.12,4.12,4.12,0,0,0,5.35-.4l1,1.17a4.31,4.31,0,0,1-1.69,1.2,5.78,5.78,0,0,1-2.25.42,5.92,5.92,0,0,1-2.81-.65,4.7,4.7,0,0,1-1.9-1.82,5.28,5.28,0,0,1-.67-2.64,5.37,5.37,0,0,1,.65-2.63,4.7,4.7,0,0,1,1.8-1.82,5.11,5.11,0,0,1,2.57-.65,5,5,0,0,1,2.56.65,4.64,4.64,0,0,1,1.75,1.82,5.58,5.58,0,0,1,.63,2.68A4.27,4.27,0,0,1,206.36,346.83Zm-7.08-3.38a3.22,3.22,0,0,0-1,2.08h6.42a3.27,3.27,0,0,0-1-2.07,3.14,3.14,0,0,0-2.18-.8A3.17,3.17,0,0,0,199.28,343.45Z"/><path d="M215.81,341.59a5,5,0,0,1,2.25-.46v1.76a2.43,2.43,0,0,0-.42,0,3,3,0,0,0-2.31.88,3.44,3.44,0,0,0-.84,2.49v5h-1.81v-10h1.74v1.68A3.07,3.07,0,0,1,215.81,341.59Z"/></g></g></svg>