<svg xmlns="http://www.w3.org/2000/svg" width="262.37" height="262.37" viewBox="0 0 262.37 262.37"><g id="Layer_2" data-name="Layer 2"><g id="Layer_1-2" data-name="Layer 1"><path d="M262.37,262.37H0V0H262.37ZM4,258.37H258.37V4H4Z"/><path d="M149.17,32.17l-28.3,82.89h-4l-27-77.32L63,115.06H58.82L30.52,32.17h4.26L61,109.26,88,32.17h3.91l26.88,77.21,26.4-77.21Z"/><path d="M221.73,154.3q8.72,7.27,8.71,20.19t-8.71,20.3q-8.7,7.29-24.21,7.29H172.77v27.83h-4V147h28.77Q213,147,221.73,154.3Zm-2.66,37.89q7.45-6.21,7.46-17.7t-7.46-17.59q-7.45-6.21-21.31-6.21h-25v47.72h25Q211.61,198.41,219.07,192.19Z"/><rect x="-8.6" y="129.19" width="280.05" height="4" transform="translate(-54.27 131.36) rotate(-45)"/></g></g></svg>