<svg xmlns="http://www.w3.org/2000/svg" width="1006.63" height="262.37" viewBox="0 0 1006.63 262.37"><g id="Layer_2" data-name="Layer 2"><g id="Layer_1-2" data-name="Layer 1"><path d="M262.37,262.37H0V0H262.37ZM4,258.37H258.37V4H4Z"/><path d="M149.17,32.17l-28.3,82.89h-4l-27-77.32L63,115.06H58.82L30.52,32.17h4.26L61,109.26,88,32.17h3.91l26.88,77.21,26.4-77.21Z"/><path d="M221.73,154.3q8.72,7.27,8.71,20.19t-8.71,20.3q-8.7,7.29-24.21,7.29H172.77v27.83h-4V147h28.77Q213,147,221.73,154.3Zm-2.66,37.89q7.45-6.21,7.46-17.7t-7.46-17.59q-7.45-6.21-21.31-6.21h-25v47.72h25Q211.61,198.41,219.07,192.19Z"/><rect x="-8.6" y="129.19" width="280.05" height="4" transform="translate(-54.27 131.36) rotate(-45)"/><path d="M394.21,57.38l-20,59.75h-9L349,69.42l-16.3,47.71h-9.13l-20-59.75h8.79L328.5,106l16.81-48.57h7.85l16.47,48.82L386.1,57.38Z"/><path d="M457.88,102.19H426.13l-6.57,14.94h-8.79l27.05-59.75h8.45l27.14,59.75h-9Zm-3-6.83L442,66.09,429.12,95.36Z"/><path d="M550.73,57.38v59.75h-7L507.89,72.58v44.55h-8.54V57.38h7l35.85,44.55V57.38Z"/><path d="M585.72,57.38H610.9a36.44,36.44,0,0,1,16.81,3.76A27.58,27.58,0,0,1,639.1,71.68a29.72,29.72,0,0,1,4.06,15.58,29.68,29.68,0,0,1-4.06,15.57,27.58,27.58,0,0,1-11.39,10.54,36.44,36.44,0,0,1-16.81,3.76H585.72Zm24.67,52.32a27.59,27.59,0,0,0,12.75-2.82,20.34,20.34,0,0,0,8.5-7.89,22.71,22.71,0,0,0,3-11.73,22.75,22.75,0,0,0-3-11.74,20.41,20.41,0,0,0-8.5-7.89,27.59,27.59,0,0,0-12.75-2.82H594.26V109.7Z"/><path d="M716.64,109.7v7.43H673.28V57.38h42.16v7.43H681.82V83.16h29.95v7.25H681.82V109.7Z"/><path d="M787.47,117.13,774.58,98.78c-1.59.11-2.84.17-3.75.17H756.07v18.18h-8.54V57.38h23.3q11.61,0,18.26,5.55t6.66,15.28A20,20,0,0,1,792.34,90a19.32,19.32,0,0,1-9.73,7.08l14.16,20.06ZM783,88.19q4.26-3.5,4.27-10T783,68.27q-4.28-3.47-12.38-3.46h-14.5V91.69h14.5Q778.69,91.69,783,88.19Z"/><path d="M826.64,57.38h8.54v59.75h-8.54Z"/><path d="M921.55,57.38v59.75h-7L878.7,72.58v44.55h-8.53V57.38h7L913,101.93V57.38Z"/><path d="M997.93,86.91h8.19v23.3a31.77,31.77,0,0,1-10.33,5.64,38.81,38.81,0,0,1-12.29,2,33.36,33.36,0,0,1-16.3-4,29.54,29.54,0,0,1-11.39-10.92,31.78,31.78,0,0,1,0-31.37,29,29,0,0,1,11.44-10.92,34.07,34.07,0,0,1,16.43-3.93,34.76,34.76,0,0,1,13,2.35,26.43,26.43,0,0,1,9.94,6.87l-5.29,5.29A24,24,0,0,0,984,64.3a25.25,25.25,0,0,0-12.25,2.94,21.6,21.6,0,0,0-8.49,8.2,24.12,24.12,0,0,0,0,23.55,22,22,0,0,0,8.49,8.24,24.78,24.78,0,0,0,12.16,3,25.34,25.34,0,0,0,14-3.84Z"/><path d="M443.71,162.81a12.55,12.55,0,0,1,0,18.37q-4,3.34-11,3.34h-8.88V195.4h-5.13V159.47h14Q439.71,159.47,443.71,162.81ZM440,178a8.24,8.24,0,0,0,0-12q-2.56-2.09-7.44-2.08h-8.73v16.12h8.73C435.82,180.06,438.3,179.36,440,178Z"/><path d="M488.08,171q3.06,3,3.06,8.8V195.4h-4.93V180.31c0-2.63-.64-4.62-1.9-5.95a7.13,7.13,0,0,0-5.44-2,8.44,8.44,0,0,0-6.31,2.33,9.14,9.14,0,0,0-2.32,6.7v14h-4.92V157.32h4.92v14.73a10.21,10.21,0,0,1,4-3,13.87,13.87,0,0,1,5.57-1.08A11.2,11.2,0,0,1,488.08,171Z"/><path d="M515.05,193.91a12.92,12.92,0,0,1-5-4.95,15,15,0,0,1,0-14.32,12.87,12.87,0,0,1,5-4.93,15,15,0,0,1,7.29-1.77,14.79,14.79,0,0,1,7.27,1.77,13,13,0,0,1,5,4.93,15,15,0,0,1,0,14.32,13,13,0,0,1-5,4.95,14.6,14.6,0,0,1-7.27,1.8A14.75,14.75,0,0,1,515.05,193.91Zm12-3.72a8.49,8.49,0,0,0,3.26-3.38,11.2,11.2,0,0,0,0-10,8.34,8.34,0,0,0-3.26-3.37,9.93,9.93,0,0,0-9.39,0,8.54,8.54,0,0,0-3.29,3.37,11,11,0,0,0,0,10,8.7,8.7,0,0,0,3.29,3.38,9.71,9.71,0,0,0,9.39,0Z"/><path d="M568.85,193.81a7.23,7.23,0,0,1-2.67,1.41,11,11,0,0,1-3.29.49,8.67,8.67,0,0,1-6.36-2.21,8.4,8.4,0,0,1-2.26-6.31V172.25h-4.62V168.2h4.62v-6h4.93v6H567v4.05h-7.8V187a4.74,4.74,0,0,0,1.1,3.39,4.11,4.11,0,0,0,3.16,1.18,5.92,5.92,0,0,0,3.85-1.28Z"/><path d="M588.51,193.91a12.88,12.88,0,0,1-5.06-4.95,15,15,0,0,1,0-14.32,12.83,12.83,0,0,1,5.06-4.93,15.84,15.84,0,0,1,14.55,0,13,13,0,0,1,5,4.93,15,15,0,0,1,0,14.32,13,13,0,0,1-5,4.95,15.6,15.6,0,0,1-14.55,0Zm12-3.72a8.49,8.49,0,0,0,3.26-3.38,11.2,11.2,0,0,0,0-10,8.34,8.34,0,0,0-3.26-3.37,9.93,9.93,0,0,0-9.39,0,8.54,8.54,0,0,0-3.29,3.37,11,11,0,0,0,0,10,8.7,8.7,0,0,0,3.29,3.38,9.71,9.71,0,0,0,9.39,0Z"/><path d="M653,168.2v23.51q0,7.13-3.55,10.55t-10.57,3.41a25.34,25.34,0,0,1-7.34-1,14.67,14.67,0,0,1-5.65-3l2.36-3.79a14.24,14.24,0,0,0,4.7,2.59,18,18,0,0,0,5.78,1c3.18,0,5.53-.76,7-2.26s2.29-3.8,2.29-6.88v-2.16a10.85,10.85,0,0,1-4.29,3.16,14.28,14.28,0,0,1-5.52,1.05,14.85,14.85,0,0,1-7-1.66,12.43,12.43,0,0,1-5-4.68,14,14,0,0,1,0-13.7,12.29,12.29,0,0,1,5-4.65,15.08,15.08,0,0,1,7-1.64,14.5,14.5,0,0,1,5.73,1.13,10.62,10.62,0,0,1,4.33,3.34V168.2Zm-9.37,20.63a8.29,8.29,0,0,0,3.33-3.15,8.78,8.78,0,0,0,1.21-4.6,8.32,8.32,0,0,0-2.62-6.39,9.48,9.48,0,0,0-6.72-2.44,9.59,9.59,0,0,0-6.78,2.44,8.35,8.35,0,0,0-2.61,6.39,8.87,8.87,0,0,0,1.2,4.6,8.31,8.31,0,0,0,3.34,3.15,10.87,10.87,0,0,0,9.65,0Z"/><path d="M681.2,169.17a13.84,13.84,0,0,1,6.11-1.23v4.78a8.21,8.21,0,0,0-1.13-.06,8.31,8.31,0,0,0-6.29,2.39q-2.28,2.38-2.28,6.8V195.4h-4.93V168.2h4.73v4.57A8.42,8.42,0,0,1,681.2,169.17Z"/><path d="M722.14,170.71q3,2.78,3,8.27V195.4h-4.67v-3.59a7.75,7.75,0,0,1-3.52,2.9,13.33,13.33,0,0,1-5.41,1,11.29,11.29,0,0,1-7.32-2.21,7.58,7.58,0,0,1-.12-11.57c1.74-1.46,4.51-2.18,8.31-2.18h7.8v-1a6.27,6.27,0,0,0-1.84-4.87,7.82,7.82,0,0,0-5.45-1.7,14.44,14.44,0,0,0-4.72.8,12.14,12.14,0,0,0-3.9,2.13l-2-3.7a14.88,14.88,0,0,1,5-2.59,21,21,0,0,1,6.21-.9C717.25,167.94,720.14,168.87,722.14,170.71Zm-4.9,19.95a7.21,7.21,0,0,0,3-3.57v-3.8h-7.59q-6.27,0-6.27,4.21a3.78,3.78,0,0,0,1.6,3.23,7.24,7.24,0,0,0,4.41,1.18A9.25,9.25,0,0,0,717.24,190.66Z"/><path d="M766.05,169.69a12.54,12.54,0,0,1,4.9,4.87,15.73,15.73,0,0,1,0,14.5,12.51,12.51,0,0,1-4.9,4.91,14.34,14.34,0,0,1-7.08,1.74,12.66,12.66,0,0,1-5.37-1.13,11.23,11.23,0,0,1-4.13-3.28v14.06h-4.93V168.2h4.72v4.31a10.59,10.59,0,0,1,4.16-3.41,13.16,13.16,0,0,1,5.55-1.16A14.24,14.24,0,0,1,766.05,169.69Zm-2.8,20.5a8.7,8.7,0,0,0,3.29-3.38,11,11,0,0,0,0-10,8.54,8.54,0,0,0-3.29-3.37,9.39,9.39,0,0,0-4.69-1.18,9.13,9.13,0,0,0-4.65,1.21,8.78,8.78,0,0,0-3.29,3.36,10.08,10.08,0,0,0-1.2,5,10.36,10.36,0,0,0,1.18,5,8.47,8.47,0,0,0,3.28,3.38,9.2,9.2,0,0,0,4.68,1.21A9.1,9.1,0,0,0,763.25,190.19Z"/><path d="M812.58,171q3,3,3,8.8V195.4H810.7V180.31c0-2.63-.63-4.62-1.89-5.95a7.14,7.14,0,0,0-5.45-2,8.47,8.47,0,0,0-6.31,2.33q-2.31,2.34-2.31,6.7v14h-4.93V157.32h4.93v14.73a10.21,10.21,0,0,1,4-3,13.87,13.87,0,0,1,5.57-1.08A11.22,11.22,0,0,1,812.58,171Z"/><path d="M859.67,183.44H837.6a8.56,8.56,0,0,0,3.16,5.78,10.32,10.32,0,0,0,6.7,2.18,10.1,10.1,0,0,0,7.85-3.29L858,191.3a11.93,11.93,0,0,1-4.59,3.28,17.34,17.34,0,0,1-13.79-.64A12.6,12.6,0,0,1,834.5,189a14.16,14.16,0,0,1-1.83-7.19,14.42,14.42,0,0,1,1.77-7.13,12.65,12.65,0,0,1,4.88-5,13.91,13.91,0,0,1,7-1.77,13.58,13.58,0,0,1,6.95,1.77,12.32,12.32,0,0,1,4.77,5,15,15,0,0,1,1.73,7.28A13.89,13.89,0,0,1,859.67,183.44Zm-19.27-9.18a8.64,8.64,0,0,0-2.8,5.64h17.45a8.75,8.75,0,0,0-2.79-5.62,9.19,9.19,0,0,0-11.86,0Z"/><path d="M885.39,169.17a13.78,13.78,0,0,1,6.11-1.23v4.78a9.62,9.62,0,0,0-7.42,2.33,9.46,9.46,0,0,0-2.29,6.8V195.4h-4.92V168.2h4.72v4.57A8.4,8.4,0,0,1,885.39,169.17Z"/></g></g></svg>