<svg xmlns="http://www.w3.org/2000/svg" width="86.718" height="86.718" viewBox="0 0 86.718 86.718">
  <path id="iconfinder_Circled_Twitter_svg_5279123" d="M43.359,0A43.359,43.359,0,1,1,0,43.359,43.38,43.38,0,0,1,43.359,0ZM35.722,66.42c19.187,0,29.678-15.9,29.678-29.678,0-.454,0-.909-.022-1.341a21.367,21.367,0,0,0,5.213-5.408A21.168,21.168,0,0,1,64.6,31.638a10.425,10.425,0,0,0,4.586-5.775,21.125,21.125,0,0,1-6.619,2.531,10.436,10.436,0,0,0-18.04,7.138,9.561,9.561,0,0,0,.281,2.379,29.589,29.589,0,0,1-21.5-10.9A10.425,10.425,0,0,0,26.55,40.917a10.246,10.246,0,0,1-4.716-1.3v.13a10.442,10.442,0,0,0,8.371,10.232,10.4,10.4,0,0,1-2.747.368,9.948,9.948,0,0,1-1.968-.195A10.414,10.414,0,0,0,35.225,57.4a20.966,20.966,0,0,1-12.957,4.456A18.983,18.983,0,0,1,19.78,61.7,29.061,29.061,0,0,0,35.722,66.42Z" fill="#386c66" fill-rule="evenodd"/>
</svg>
